<svg xmlns="http://www.w3.org/2000/svg" viewBox="0 0 512 512">
  <defs>
    <linearGradient id="bg" x1="0" y1="0" x2="1" y2="1">
      <stop stop-color="#fff9ee"/>
      <stop offset="1" stop-color="#dce8c9"/>
    </linearGradient>
  </defs>
  <rect width="512" height="512" rx="126" fill="url(#bg)"/>
  <path d="M90 150c0-33 27-60 60-60h212c33 0 60 27 60 60v212c0 33-27 60-60 60H150c-33 0-60-27-60-60V150Z" fill="#607a65" stroke="#fff" stroke-width="18"/>
  <path d="M115 149c0-20 16-36 36-36h210c20 0 36 16 36 36v42H115v-42Z" fill="#f1a08e" opacity=".94"/>
  <circle cx="345" cy="148" r="13" fill="#fff9ee"/>
  <path d="M149 255h214M149 330h214" stroke="#fff" stroke-width="14" stroke-linecap="round" opacity=".22"/>
  <text x="256" y="352" text-anchor="middle" font-family="Microsoft YaHei UI,sans-serif" font-size="176" font-weight="900" fill="#fff">串</text>
</svg>
